<svg xmlns="http://www.w3.org/2000/svg" viewBox="0 0 300 200" enable-background="new 0 0 300 200"><style type="text/css">.st0{opacity:0.1;fill:#6C63ff;enable-background:new ;}
.st1{fill:#65617D;} .st2{opacity:0.1;enable-background:new ;}
.st3{fill:#D1D9EC;} .st4{fill:#464A5F;}
.st5{opacity:0.3;fill:#6C63ff;enable-background:new ;}
.st6{fill:#53526B;} .st7{fill:url(#SVGID_1_);}
.st8{fill:#4C495A;} .st9{fill:#5F5D7E;}
.st10{fill:#FDC2CC;} .st11{fill:#6C63FF;}
.st12{fill:#DFE6F5;} .st13{fill:#FFFFFF;}
.st14{fill:#865A61;} .st15{opacity:0.1;}</style><ellipse class="st0" cx="152.4" cy="164.4" rx="86.2" ry="3.1"/><ellipse class="st0" cx="85.8" cy="178.8" rx="23" ry="4.6"/><path class="st1" d="M76.1 90.6h156.4v66.6h-156.4v-66.6z"/><path class="st2" d="M76.1 90.6h156.4v1.4h-156.4v-1.4z"/><path class="st1" d="M74 88h160.5v3.5h-160.5v-3.5z"/><path class="st2" d="M74 88h160.5v.6h-160.5v-.6z"/><path class="st1" d="M71.1 87.1h166.4v1.2h-166.4v-1.2z"/><path class="st2" d="M81.1 92.9h34.3v10.6h-34.3v-10.6z"/><path class="st3" d="M81.5 92.6h34.3v10.6h-34.3v-10.6z"/><path class="st2" d="M81.1 108.3h34.3v21.5h-34.3v-21.5z"/><path class="st3" d="M81.5 107.9h34.3v21.5h-34.3v-21.5z"/><path class="st2" d="M81.1 133h34.3v21.5h-34.3v-21.5z"/><path class="st3" d="M81.5 132.6h34.3v21.5h-34.3v-21.5z"/><path class="st2" d="M93.3 97.3h9.8v2h-9.8v-2z"/><path class="st4" d="M93.3 96.9h9.8v2h-9.8v-2z"/><path class="st2" d="M196.5 92.9h34.3v10.6h-34.3v-10.6z"/><path class="st3" d="M196.9 92.6h34.3v10.6h-34.3v-10.6zm0 14.1h34.3v46.1h-34.3v-46.1z"/><path class="st4" d="M208.8 96.9h9.8v2h-9.8v-2z"/><path class="st2" d="M93.3 118.5h9.8v2h-9.8v-2z"/><path class="st4" d="M93.3 118.1h9.8v2h-9.8v-2z"/><path class="st2" d="M93.3 141.3h9.8v2h-9.8v-2z"/><path class="st4" d="M93.3 140.9h9.8v2h-9.8v-2z"/><path class="st2" d="M202 111.5h25v37.1h-25v-37.1z"/><path class="st5" d="M201.6 111.1h25v37.1h-25v-37.1z"/><path class="st2" d="M74 156.6h160.5v6.7h-160.5v-6.7z"/><path class="st1" d="M74 156.8h160.5v6.7h-160.5v-6.7z"/><path class="st4" d="M118.7 96h75.3v48.5h-75.3v-48.5z"/><path class="st2" d="M119.6 99.9s42.2 4.3 73.2.2v3.8s-31.7 3.9-73.2-.7v-3.3z"/><path class="st3" d="M119.6 99.5s42.2 4.3 73.2.2v3.8s-31.7 3.9-73.2-.7v-3.3z"/><path class="st5" d="M127.2 108.8h58.3v27.7h-58.3v-27.7z"/><path class="st2" d="M118.7 96h75.3v1.5h-75.3v-1.5z"/><path class="st4" d="M117.5 85.9h77.6v11.2h-77.6v-11.2z"/><circle class="st2" cx="123.9" cy="91" r="2.8"/><circle class="st3" cx="123.9" cy="90.6" r="2.8"/><circle class="st2" cx="130.9" cy="91" r="2.8"/><circle class="st3" cx="130.9" cy="90.6" r="2.8"/><circle class="st2" cx="182" cy="91" r="2.8"/><circle class="st3" cx="182" cy="90.6" r="2.8"/><circle class="st2" cx="189" cy="91" r="2.8"/><circle class="st3" cx="189" cy="90.6" r="2.8"/><path class="st2" d="M145.2 87.9h21.7v6.8h-21.7v-6.8z"/><path class="st6" d="M145.6 87.5h21v6.8h-21v-6.8z"/><path class="st2" d="M123.9 87.2h.8v6.9h-.8v-6.9z"/><path class="st6" d="M123.5 87.2h.8v6.9h-.8v-6.9z"/><path class="st2" d="M189 87.2h.8v6.9h-.8v-6.9z"/><path class="st6" d="M188.6 87.2h.8v6.9h-.8v-6.9z"/><path class="st2" d="M184.2 88.2l.6.6-4.9 4.9-.6-.6 4.9-4.9z"/><path class="st6" d="M184.2 87.9l.6.6-4.9 4.9-.6-.6 4.9-4.9z"/><path class="st2" d="M134.3 90.6v.8h-6.9v-.8h6.9z"/><path class="st6" d="M134.3 90.2v.8h-6.9v-.8h6.9z"/><path class="st2" d="M118.7 143.4h75.3v1.1h-75.3v-1.1z"/><path class="st4" d="M117.5 143.7h77.6v20h-77.6v-20z"/><linearGradient id="SVGID_1_" gradientUnits="userSpaceOnUse" x1="216.131" y1="-21.605" x2="216.131" y2="147.442" gradientTransform="matrix(1 0 0 -1 -128.27 160.47)"><stop offset="0" stop-color="#808080" stop-opacity=".25"/><stop offset=".54" stop-color="#808080" stop-opacity=".12"/><stop offset="1" stop-color="#808080" stop-opacity=".1"/></linearGradient><path class="st7" d="M114.1 68.8c-.4-.7-2.4-5.2-2.4-5.2l-3.3-8.6s-2.4-3.6-2.4-4.3l-4.3-3.4s-3.5-1-3.8-1.1l-4.4-1.5s-1.6-2.1-1.9-1.6c-.3-.6-.5-1.3-.6-2v-.2c2.2-1.5 3.5-3.9 3.5-6.6 0-.3 0-.7-.1-1h.1c.1 0 .1-.1 0-.1h.1c.1 0 0-.1-.1-.1.1-.1 0-.1-.2-.1v-.1c0-.1 0-.1.1-.2v-.4.1c0-.1 0-.3-.1-.4-.1-.1-.1-.2-.2-.2l.2-2.3c3.4-.2 3.9-5.9 3.2-6.2v-2.4l-2.5-3.1s-1.1.5-2.7-2.1-7.7-3.1-8.1-2.4-3.1 1.6-6.6 2.6-2.9 5.2-2.3 6.1c.5.7.8 1.6.8 2.5 0 .5 1.1 2.7 1.1 2.7-.4.8.5 5 .8 6.2v.2c-.1.1-.1.3-.1.4 0 .1 0 .3.1.4 0 2.3 1.1 4.4 2.8 5.9v.2c0 1 .1 2.1 0 3.2v.2c-.4.1-.7.3-.9.7-.3.6-2.3 1.6-2.3 1.6s-3.3.2-3.6.8l-5.2 2.7s-2.6 1.5-2.2 3.2c.2.9-.4 2.3-.9 3.4-1.2-.5-2.4-.8-3.7-.9l2.7 2.6-.1.1-1.6 5.6s-.5 1.9-1.1 2.4l.5 4.7s-.6 3-1.1 3.8l.8 2.7 2.5 5.6 6.5 1.7 1.1.2c0 .1 0 .3-.1.4-.3 1.8-.7 3.4-1.2 3.9-1.2 1.1-1.2 6-1.2 6l.1 6.9s.4 8.5.2 8.8c-.1.2.1.5.9.8l-.1.4c-.2 1.4-.3 3 .2 3.7.2.4.3.8.3 1.2 0 .7 1 2.1 1 2.1s-.8 5.8.5 7.7 2.5 5.6 1.8 6.4c0 0-1.1 2.4-.6 3.5.5 1.1 0 1.7-.7 2l-.6 2.4 1.3 10.1s.7 2.1.1 2.8c-.6.7-.6 4.4.3 5.6l-1.3 3.6s-1.3 1.9.8 2.5c0 0 .4.1-.4.9s-1 1.9-.4 2.2l.3.2c0 .1 0 .3-.1.4-.2 1.1-.6 2.5-1.3 3.2-1.4 1.4-2.5 3-3.5 4.7-.7 1.4-1.1 2.7-.2 3.3 1.9 1.5 4.4 1.9 5.9 1.3l3.5-2.3.5-2s-.3-1.2 1.3-1.7l3.1-2.1v-2.7c.4-.2.8-.5 1.1-.7 0 0 .8-2.6 0-3.5-.8-.9-1-1.2-.1-1.8s1.1-1.8.4-2.9c-.7-1.1-1.8-2.7-.9-5l1.3-9.3s-.4-4.8 0-5.9l-.5-3.3s.3-2.7.9-4l1.1-7.8s1.1-2.8 1.1-4.6-1.7-6.2.8-7.3c0 0 1.1.9.6 4.7 0 0 1.2 4.4 1.2 5.7l.9 6.2s.1 1.6.5 2.1v2.1s1.4 1.3 1 2.1l.1 2.7-.3 11.6s-1 5 1.3 8c0 0-.8 4.4-1.3 4.7l1.8 3s-.6 1.7.6 1.8v2.9c.4.8 1 1.5 1.8 2 1.2.8.7 3.7.7 3.7s1.5 3.6 5.5 2.9 4.5-1.1 4.3-2.4c-.1-.5-.2-1.3-.5-2.3-.4-1.7-1.1-3.7-1.9-4.7-1.2-1.6-2.3-4.8-2.3-4.8s-.5-1.1 0-1.5l.3-1s.5-1.3 0-2.2l.8-2.5-.4-8 .4-11.6s-1.7-1.9-1-3.1l-.8-2.8s-.2-.1.3-1.3c.3-.8.2-1.6-.1-2.3 0 0-.9-3.2.7-5.7 0 0 .7-3.2.9-4.9.1-1.2 1.1-5.5 1.6-8l.1-.4c.8 0 1.4.1 1.4.1s-1.2-8.6 0-10.3l-1-15.3s-.5-2.4-.8-4.8l-.1-.4c1-.1 2-.1 3-.1 2.6.2 5.1-.8 5.1-1.8.1-1 1.4-4.9 1.7-5.8.4-.7.6-3.7.2-4.4z"/><path class="st8" d="M82.8 168.9v4.8s-1.4 1.7-3 2.1l-1.2 1.7-.5 2s-2 1.8-3.4 2.3c-1.4.6-3.8.1-5.6-1.3-.8-.6-.5-1.9.2-3.3.9-1.7 2.1-3.3 3.4-4.7.7-.7 1.1-2.1 1.3-3.2.1-.8.2-1.4.2-1.4l8.6 1z"/><path class="st2" d="M82.8 172.4v1.2s-1.4 1.7-3 2.1l-1.2 1.7-.5 2s-2 1.8-3.4 2.3c-1.4.6-3.8.1-5.6-1.3-.8-.6-.5-1.9.2-3.3 0 1.5.4 3.1 2.5 3 2.3-.1 4.5-.9 6.3-2.3 0 0-.1-3.4 2.3-4.2.9-.1 1.7-.6 2.4-1.2z"/><path class="st8" d="M101.7 181.2c-3.8.8-5.3-2.8-5.3-2.8s.5-2.8-.7-3.7c-.7-.5-1.3-1.2-1.7-2v-4.8l4.6-3.3 2.5 2.2.2.1s1 3.3 2.2 4.8c.8 1 1.4 3 1.8 4.6.2 1 .4 1.8.5 2.3.3 1.4-.2 1.8-4.1 2.6z"/><path class="st2" d="M101.7 181.2c-3.8.8-5.3-2.8-5.3-2.8s.5-2.8-.7-3.7c-.7-.5-1.3-1.2-1.7-2v-1.8c.7.8 2.1 2.3 2.4 2.9.4.9.5 4.1 2.4 4.6 1.9.6 5.6 1.1 5.9-.4.1-.6.3-1.1.6-1.6.2 1 .4 1.8.5 2.3.3 1.3-.2 1.7-4.1 2.5zM74.2 167.9l8.6.9v2.5c-1 .6-2.4 1.2-3.2.6-1.2-.9-4.6-2.1-5.7-2.6.3-.7.3-1.4.3-1.4zM101.4 167.4c-1.2-.4-3.3 1.4-6.1 2.5-.4.2-.8.3-1.2.3v-2.3l4.6-3.3 2.5 2.2c.1.2.2.4.2.6z"/><path class="st9" d="M104.5 110.5s-.2.8-.4 1.9c-.5 2.5-1.4 6.8-1.6 8-.2 1.7-.9 4.9-.9 4.9-1.6 2.4-.7 5.6-.7 5.6.3.7.4 1.6.1 2.3-.4 1.3-.3 1.3-.3 1.3s1.4 1.6.8 2.7l.9 3-.4 11.6.4 8s-1.2 1.7-.8 2.5v2.2s.2.7-.3 1v1.4c-1.2-.4-3.3 1.4-6.1 2.5l-1.9-1.6s-2.2-2.7-1.7-3l1.2-4.7c-2.2-3-1.2-8-1.2-8l.3-11.6s-.4-1.9-.1-2.7l-1-2.1s.4-1.5 0-2.1l-.5-2.1s-.9-4.9-.9-6.2l-1.2-5.7c.4-3.7-.6-4.6-.6-4.6-2.4 1.1-.8 5.5-.8 7.3l-1 4.6s-.5 6.6-1 7.8l-.9 4s.9 2.2.5 3.3v5.9s-.3 7-1.3 9.2c-.9 2.3.2 3.9.8 5 .7 1.1.6 2.3-.4 2.9s-.7.9.1 1.8v3.5s-2.9 2.3-4.2 1.3c-1.3-1-5.4-2.4-5.9-2.7-.5-.4-.4-1.4.4-2.2l.4-.9c-2.1-.6-.8-2.5-.8-2.5s2.1-2.3 1.2-3.5c-.9-1.2-.9-4.9-.3-5.6l-.1-2.8-1.2-10.1s-.1-2.1.6-2.4c.7-.3 1.2-.9.7-2l.6-3.5c.6-.8-.5-4.4-1.8-6.4l-.5-7.7s-1-1.4-1-2.1c0-.4-.1-.9-.3-1.2-.4-.7-.4-2.3-.2-3.7.2-1.4.5-2.5.5-2.5l32.8.7z"/><path class="st10" d="M94.3 52l-10.2 2.4s-5-4.2-3.8-6.5c.4-.8.6-2.1.7-3.5.1-1.1 0-2.3 0-3.2-.1-1.4-.2-2.4-.2-2.4s10.4-5.9 10.1 0c-.1 1-.1 2 .1 2.9.1.7.3 1.4.6 2 .6 1 1.2 1 1.2 1l1.5 7.3z"/><path class="st2" d="M91 41.6c-3 2.2-7.2 2-10-.5-.1-1.4-.2-2.4-.2-2.4s10.4-5.9 10.1 0c0 1 0 1.9.1 2.9z"/><circle class="st10" cx="86.3" cy="34.9" r="8"/><path class="st2" d="M94.3 52l-10.2 2.4s-5-4.2-3.8-6.5c.4-.8.6-2.1.7-3.5.2 1.2.9 2.3 1.9 3.1 2.3 1.6 2 3.5 2 3.5l4.2-.2c-.3-1.7 1.3-2.6 1.8-2.8l.3-1.1.4-3.2c.6 1 1.2 1 1.2 1l1.5 7.3zm10.2 58.5s-.2.8-.4 1.9c-1.1-.1-2.6-.1-3.3 0-1.1.3-5.7.4-5.7.4l-11.3.4v-.3c-1.3 0-2.6.1-3.9.3-1.9.3-4.9-.1-6.8-.4-.6-.1-1.2-.2-1.7-.5.2-1.4.5-2.5.5-2.5l32.6.7z"/><path class="st11" d="M103.6 77.7c-.2 1 0 2.6.2 4.1.3 2.4.8 4.7.8 4.7s2.1 13.4.9 15.2v10.3s-3.6-.3-4.7-.1l-5.7.4-11.3.4v-.3c-1.3 0-2.6.1-3.9.3-1.9.3-4.9-.1-6.8-.4s-2.7-.9-2.5-1.2l-.2-8.8-.1-6.9s-.1-4.9 1.1-5.9c.5-.4.9-2.1 1.2-3.9.4-2.6.7-5.4.7-5.4l-7.9-21-.2-.4s2.3-3.5 1.9-5.2l2.1-3.2s4.7-2.1 5-2.7l3.6-.8s1.9-1 2.2-1.6c.2-.4.5-.6.9-.7.2 1.2.9 2.4 1.9 3.1 2.3 1.5 2 3.5 2 3.5l4.2-.2c-.3-1.7 1.3-2.6 1.8-2.8l.3-1.1.5-3.3c.2-.6 1.8 1.6 1.8 1.6s4 1.4 4.2 1.5l3.6 1.1s4.1 2.7 4.1 3.4l2.3 4.3-.1.4c-.4 2.6-3.5 19.4-3.9 21.6z"/><path class="st10" d="M87.1 69.4s-8.9-2.4-9.8-2.9c-.9-.6-6 2.7.3 7.2 0 0 7.7 1.6 9.8 0l-.3-4.3z"/><path class="st2" d="M106.4 55.2l1.1.1 3.2 8.6s1.9 4.5 2.3 5.2c.4.7.2 3.7 0 4.6-.2.9-1.6 4.8-1.6 5.7 0 1-2.5 2-5 1.8l-8.3.6s-6.2-.6-10 1.3c0 0-2.4-5-2.2-14.4 0 0 4.3-.3 5.4.2 1.1.4 6.4 1.6 7 1l3.7 1.1c.3-.7.3-1.5 0-2.2-.5-1.2-1.4-5.1-.3-6.4l4.7-7.2zm-2.6 26.7c-2.6.2-5.4.6-5.4.6s-6.2-.6-10 1.3c0 0-2.4-5-2.2-14.4 0 0 4.3-.3 5.4.2 1.1.4 6.4 1.6 7 1l3.7 1.1c.3-.7.3-1.5 0-2.2-.5-1.2-1.4-5.1-.3-6.4l4.5-7.3h1c-.5 2.8-3.6 19.6-4 21.9-.1 1 .1 2.6.3 4.2z"/><path class="st11" d="M106.6 55.4l1.1.1 3.2 8.6s1.9 4.5 2.3 5.2c.4.7.2 3.7 0 4.6-.2.9-1.6 4.8-1.6 5.7 0 1-2.5 2-5 1.8l-8.3.6s-6.2-.6-10 1.3c0 0-2.4-5-2.2-14.4 0 0 4.3-.3 5.4.2 1.1.4 6.4 1.6 7 1l3.7 1.1c.3-.7.3-1.5 0-2.2-.5-1.2-1.4-5.1-.3-6.4l4.7-7.2z"/><path class="st12" d="M97 75.2l-1.3-.8 7.2-11.6 1.3.8-7.2 11.6z"/><ellipse transform="matrix(-.85 -.526 .526 -.85 162.886 167.192)" class="st12" cx="105.2" cy="60.4" rx="3.1" ry="4.4"/><ellipse transform="matrix(-.85 -.526 .526 -.85 162.886 167.192)" class="st2" cx="105.2" cy="60.4" rx="2.2" ry="3.1"/><path class="st6" d="M93.4 81.1l-1.3-.8 4.5-7.2 1.3.8-4.5 7.2z"/><path class="st10" d="M84.4 80.8l3.2-.9s15.5.4 10.3-6c0 0-2.7-2.6-8.5-.5l-7.3 2.4 2.3 5z"/><circle class="st2" cx="82.1" cy="53.2" r=".6"/><circle class="st2" cx="92.7" cy="52.8" r=".6"/><circle class="st13" cx="82.1" cy="53" r=".6"/><circle class="st2" cx="83" cy="61.8" r=".6"/><circle class="st2" cx="93.1" cy="61.2" r=".6"/><circle class="st13" cx="83" cy="61.6" r=".6"/><circle class="st2" cx="92.8" cy="91.1" r=".6"/><circle class="st2" cx="84.6" cy="91.1" r=".6"/><circle class="st13" cx="92.8" cy="90.9" r=".6"/><circle class="st2" cx="85.3" cy="101.4" r=".6"/><circle class="st2" cx="93.1" cy="100.8" r=".6"/><circle class="st13" cx="85.3" cy="101.2" r=".6"/><circle class="st13" cx="84.6" cy="90.9" r=".6"/><circle class="st13" cx="93.1" cy="100.6" r=".6"/><circle class="st13" cx="92.7" cy="52.6" r=".6"/><circle class="st13" cx="93.1" cy="60.9" r=".6"/><path class="st2" d="M94 82.7s.1 14.2.4 16.7c0 0 .1-16-.4-16.7zm2.6 6.6c-.2 0 4.2 16.6 4.4 17.8.3 1.1-3.1-17.8-4.4-17.8zm3.5-2.7c0 .2 2.5 9 3.7 9.5l-3.7-9.5zm9.8-17.2s-5.3.2-5.4 1l5.4-1zm-9.3 67.3s-3.8 1.6-3.2 1.7l3.2-1.7zm-7.8-2.3c-.1-.3 2.5 1.3 2.5 1.6 0 .1-2.3-1.2-2.5-1.6zm3.5 5.4s2.9-.1 3.2 1l-3.2-1zm-21.2 0s3.2-.6 3.5 0h-3.5zm1.2 19.5s.2 2.6-.6 3.3l.6-3.3zm-.4 5.5c1 .1 6.3-.8 6.3 0h-6.3zm24.4-3.2s-1.8-.3-1.4.9l1.4-.9zM66.6 58.5h-1l-1.5 5.5s-.5 1.9-1 2.4l.5 4.7s-.6 3-1 3.8l.7 2.7 2.4 5.6 6.3 1.7s11.1 2.4 11.6 2.8 1-.2 1.3-3.5c.3-3.4 1.3-9.9 2.1-10.2 0 0-6.2.7-6.7.6l-3 .1s-3.3-.2-3.8.1l.7-1.5c.2-.8.2-1.7 0-2.5-.4-1.6-.6-17.4-7.6-12.3zm20.2 16c-.8.3-1.8 6.8-2.1 10.2-.4 3.4-.8 3.9-1.3 3.5-.4-.3-7.8-2-10.6-2.6.4-2.6.7-5.4.7-5.4l-7.9-21h.8c7-5.2 7.2 10.6 7.6 12 .2.8.2 1.7 0 2.5 0 0-1.2 1.8-.7 1.5l3.8-.1s2.5-.2 3-.1l6.7-.5z"/><path class="st11" d="M66.4 58.7h-1l-1.5 5.5s-.5 1.9-1 2.4l.5 4.7s-.6 3-1 3.8l.7 2.7 2.4 5.6 6.3 1.7s11.1 2.4 11.6 2.8 1-.2 1.3-3.5c.3-3.4 1.3-9.9 2.1-10.2 0 0-6.2.7-6.7.6l-3 .1s-3.3-.2-3.8.1l.7-1.5c.2-.8.2-1.7 0-2.5-.4-1.6-.6-17.4-7.6-12.3z"/><path class="st2" d="M69.8 77.4s-2.8 5.4-3.4 4.8l3.4-4.8zm-3-3s-2.6 2.2-1.4 2.7l1.4-2.7zm2.5-2.7c.2.1 3.8.8 3.9 1.1l-3.9-1.1zM94.4 33.8c-.2.1-.4.3-.4.6-.2.2-.5 0-.7-.3s-.4-.5-.6-.5c-.1 0-.2.1-.4.2-.4.1-.8-.4-1-.8l-1.2-2.2c-.8.5-1.8 0-2.6-.5s-1.8-1-2.6-.5c-1.2.7-1.2 3-2.5 3.5-.4.2-.9.1-1.2.4-.4.3-.6.7-.7 1.2-.1.3-.2.5-.4.7-.1.1-.3.1-.4.1-.4.1-.7 0-1.1-.2-.4-.2-.5-.7-.4-1.1v-.1l.4-.5c.1-.3-.1-.7 0-1.1l.8-1.5v-.7999999999999999l-.4.3c.4-.5.6-1.2.9-1.8.7-1.3 1.9-2.3 3.3-2.7 1.3-.4 2.8-.3 4.1 0 1.3.3 2.5.8 3.7 1.5.4.2.8.5 1.1.9.2.4.5.8.6 1.2.4.8 1.5 1.6.6 1.7-.7.1-.1.6.3.9.1.1.2.1.2.2.1.3.1.6 0 .8.2.3.8.4.6.4z"/><path class="st14" d="M94.4 33.6c-.3.1-.4.4-.4.6-.2.2-.5 0-.7-.3s-.4-.5-.6-.5c-.1 0-.2.1-.4.2-.4.1-.8-.4-1-.8l-1.2-2.2c-.8.5-1.8 0-2.6-.5s-1.8-1-2.6-.5c-1.2.7-1.2 3-2.5 3.5-.4.2-.9.1-1.2.4-.4.3-.6.7-.7 1.2-.1.3-.2.5-.4.7-.1.1-.3.1-.4.1-.4.1-.7 0-1.1-.2-.4-.2-.5-.7-.4-1.1v-.1l.4-.5c.1-.3-.1-.7 0-1.1l.8-1.5v-.7999999999999999l-.4.3c.4-.5.6-1.2.9-1.8.7-1.3 1.9-2.3 3.3-2.7 1.3-.4 2.8-.3 4.1 0 1.3.3 2.5.8 3.7 1.5.4.2.8.5 1.1.9.2.4.5.8.6 1.2.4.8 1.5 1.6.6 1.7-.7.1-.1.6.3.9.1.1.2.1.2.2.1.3.1.6 0 .8.2.3.8.4.6.4z"/><path class="st2" d="M94 32.3l-.1.9s-8.7-11-15.4 1.4l-.1-.4.4-.5c.1-.3-.1-.7 0-1.1l.8-1.5v-.7999999999999999l-.4.3c.4-.5.6-1.2.9-1.8.7-1.3 1.9-2.3 3.3-2.7 1.3-.4 2.8-.3 4.1 0 1.3.3 2.5.8 3.7 1.5.4.2.8.5 1.1.9.2.4.5.8.6 1.2.4.8 1.5 1.6.6 1.7-.6 0 .1.5.5.9z"/><path d="M94.2 33.5c-.1.1-.1.2-.1.4-.2.2-.5 0-.7-.3s-.4-.5-.6-.5c-.1 0-.2.1-.4.2-.4.1-.8-.4-1-.8l-1.2-2.2c-.8.5-1.8 0-2.6-.5s-1.8-1-2.6-.5c-1.2.7-1.2 3-2.5 3.5-.4.2-.9.1-1.2.4-.4.3-.6.7-.7 1.2-.1.3-.2.5-.4.7-.1.1-.3.1-.4.1-.4.1-.7 0-1.1-.1-.2-.1-.3-.3-.4-.6-.1.4.1.8.4 1 .3.2.7.2 1.1.2.1 0 .3 0 .4-.1.2-.2.3-.4.4-.7.2-.5.4-.9.7-1.2.4-.3.8-.2 1.2-.4l2.5-3.5c.8-.5 1.8 0 2.6.5s1.8 1 2.6.5l1.2 2.2c.2.4.6.9 1 .8.1-.1.2-.1.4-.1.3 0 .5.3.6.5.2.2.5.5.7.3 0-.2.1-.5.4-.6.1-.2-.3-.3-.3-.4zm-.7-2h.2c.4-.1.4-.2.2-.5-.1 0-.2.1-.2.1-.4 0-.4.1-.2.4zm.8 1.7v-.4c0 .1-.1.2-.1.2-.1.1 0 .2.1.2zm-15.5-.6v.6-.6zm.8-2.5c-.1.2-.2.4-.3.5l.3-.2v-.3z" class="st15"/><path class="st11" d="M78.5 34.3s-1.2-5.6-.9-6.5c0 0-1.1-2.2-1.1-2.7-.1-.9-.3-1.7-.8-2.5-.6-.9-1.2-5.1 2.2-6s6-1.9 6.4-2.6 6.2-.3 7.8 2.4l2.6 2.1s2.4 1.5 2.4 2.9-.7 2.1 0 2.4c.7.3.2 6-3.1 6.2l-.3 3c.2-.1-8.5-11.1-15.2 1.3z"/><path class="st2" d="M78.8 17.7s-.8 4.4.6 5.9l-.6-5.9zm3.5-1s-1.9 4.7-1.4 5.6l1.4-5.6zm1.7-1.5s-1.3 6.1-.7 6.6l.7-6.6zm2.2 1.7s-1.6 3.9-1 4.5l1-4.5zm3 .4s-1.9 3.2-1.5 3.8l1.5-3.8zm3.9 3.1s-2 .5-1.6 1.2l1.6-1.2zm1.9 3.4s-1.8.9-1.5 1.3l1.5-1.3zm-17.4 4.1s11.5-4.7 16.5 2.1c.1-.1-6-5.2-16.5-2.1z"/><path class="st6" d="M73.4 66.4l1.6-1.6 4.5 4.5-1.5 1.6-4.2-4.1-.4-.4z"/><path class="st12" d="M62.9 56s7 .6 13.6 8l-2.7 2.8-10.9-10.8z"/><path class="st10" d="M84 69.2s-6.8-2.5-7.4-3.1c-.7-.6-4.6 2.8.2 7.5 0 0 5.9 1.7 7.4 0l-.2-4.4z"/><path class="st11" d="M139.9 27.7h5.6v16.5c0 2.5-.8 4.5-2.3 5.9-1.5 1.5-3.5 2.2-5.9 2.2-2.7 0-4.9-.7-6.5-2-1.6-1.3-2.4-3.2-2.3-5.7l.1-.1h5.5c0 1.2.3 2.1.9 2.6.6.6 1.4.8 2.4.8.7 0 1.3-.3 1.8-1s.7-1.6.7-2.8v-16.4zM163.6 41.6h-8.6v6.1h10.3v4.3h-15.9v-24.3h15.9v4.3h-10.3v5.2h8.6v4.4zM188.4 27.7v15.8c0 2.8-.9 5-2.8 6.5-1.8 1.6-4.3 2.4-7.2 2.4-3 0-5.4-.8-7.3-2.4s-2.8-3.8-2.8-6.5v-15.8h5.7v15.8c0 1.5.4 2.6 1.2 3.4.8.8 1.9 1.2 3.2 1.2 1.4 0 2.4-.4 3.2-1.1.8-.8 1.1-1.9 1.1-3.4v-15.9h5.7zM192.2 52v-24.3h8.9c2.9 0 5.3.9 7.2 2.8 1.9 1.9 2.9 4.3 2.9 7.2v4.3c0 2.9-1 5.3-2.9 7.2-1.9 1.9-4.3 2.8-7.2 2.8h-8.9zm5.6-20v15.6h3.3c1.3 0 2.3-.5 3.2-1.6.8-1 1.2-2.4 1.2-4.1v-4.4c0-1.6-.4-3-1.2-4-.8-1-1.9-1.6-3.2-1.6h-3.3z"/><path class="st4" d="M220.5 52h-5.6v-24.3h5.6v24.3z"/></svg>